PathFileType	4	(X/Y/Z)	D:\TRACE\v60_Jaco2_6-2-23\BothDRS_Motion3_6-v60.trc
DataRate	CameraRate	NumFrames	NumMarkers	Units	OrigDataRate	OrigDataStartFrame	OrigNumFrames
100.00	100.00	      24	9	mm	100.00	3501	      7000
Frame#	Time	front left toe			Front right toe			aft left toe			aft right toe			Arm			FL body			FR body			AL Body			AR Body			
		X1	Y1	Z1	X2	Y2	Z2	X3	Y3	Z3	X4	Y4	Z4	X5	Y5	Z5	X6	Y6	Z6	X7	Y7	Z7	X8	Y8	Z8	X9	Y9	Z9	

3501	35.000	-52.46637	7.02072	-169.68741	345.36411	80.87344	-156.39336	-51.22234	96.35257	447.42142	289.87292	26.01087	471.42261	234.38002	1089.63293	-518.34753	73.35217	504.77808	-342.07315	231.17561	502.51965	-331.99265	22.22318	571.62671	598.63745	172.92702	560.23792	607.85217	
3502	35.010	-52.48639	7.07545	-169.63992	343.65448	92.10429	-156.09802	-53.67633	106.07236	448.02170	289.98654	25.68950	471.48141	232.87573	1088.90137	-518.64233	72.58450	505.06143	-341.38669	230.85643	502.75388	-331.91296	22.56312	570.93445	599.20612	173.35468	559.49884	608.65369	
3503	35.020	-52.45458	7.15070	-169.54858	341.60617	102.94715	-155.67297	-55.66575	116.25135	448.30746	290.10977	25.61521	471.57510	230.84142	1088.27258	-519.08960	71.82808	505.36636	-341.12802	230.53279	502.97043	-331.37241	22.52890	570.57104	599.85724	173.68283	559.05573	609.04529	
3504	35.030	-52.44710	7.12085	-169.47617	340.10730	113.00574	-155.20857	-57.29882	126.58056	448.55084	289.59991	24.47392	470.47641	228.94707	1087.70850	-518.92719	71.20783	505.72021	-340.75446	229.12549	503.21570	-330.66000	22.64510	570.50214	600.76331	173.64742	558.90356	609.47394	
3505	35.040	-52.57341	7.06883	-169.47641	338.62808	121.63963	-154.28419	-58.40549	135.66757	449.24274	289.59094	24.33042	470.42740	227.03870	1087.46753	-518.51196	70.39055	505.59424	-340.32285	229.28212	503.14081	-330.33661	22.94676	570.50684	601.39282	174.40977	558.94965	610.21985	
3506	35.050	-52.69911	6.95514	-169.32477	337.78601	129.46327	-153.74507	-59.94893	143.85088	449.84299	289.54245	23.98457	470.21231	226.24014	1087.91125	-517.86847	69.88959	505.30231	-339.05054	228.65694	502.87091	-329.68018	23.74715	570.57855	602.09467	174.96259	559.12976	610.62610	
3507	35.060	-52.71258	6.96436	-169.16399	337.12616	135.50337	-153.05119	-61.48140	150.32579	451.05261	290.28204	25.24414	471.56387	225.78003	1088.66882	-516.91217	69.56551	504.99753	-337.87231	227.12086	503.10892	-329.25488	24.64232	570.86652	602.91785	175.60817	559.44287	611.36694	
3508	35.070	-52.68570	7.11442	-169.03769	336.32916	137.88480	-151.63559	-63.29411	153.52345	452.90790	290.35852	25.03807	471.67572	225.21342	1089.30493	-515.77606	68.33644	505.13779	-337.27499	226.94472	502.82187	-328.71185	25.39456	571.10101	603.98370	176.02232	559.88885	611.89941	
3509	35.080	-52.68841	7.31941	-168.77855	335.93549	137.70000	-149.68364	-64.57769	153.78339	455.21436	290.46054	24.77765	471.77438	224.44258	1089.75098	-514.84894	67.83171	505.22580	-336.28021	225.75349	503.07861	-328.00449	26.40864	571.26196	604.86578	177.31551	559.58466	612.44147	
3510	35.090	-52.67561	7.32754	-168.58784	334.33560	134.96509	-147.68959	-65.57387	151.58658	458.04053	290.55609	24.53790	471.72055	224.01126	1090.02405	-513.78046	66.62922	505.79324	-335.54465	224.79802	503.54944	-327.09827	27.57311	571.27136	605.98383	178.44528	559.87708	613.48065	
3511	35.100	-52.62533	7.47366	-168.17474	332.66739	130.89751	-146.20546	-65.82200	148.29878	460.87473	290.81107	24.26060	471.89291	223.49423	1090.12756	-513.01379	66.31446	506.24335	-334.49347	224.85617	503.76740	-326.67227	28.17513	571.14832	606.89819	178.68105	559.77307	614.16302	
3512	35.110	-52.64613	7.58861	-168.00661	330.32581	125.51443	-144.91214	-66.02731	144.07076	463.49469	291.06598	24.22522	472.06418	222.60524	1090.38391	-512.37775	65.67068	506.54996	-333.46997	223.85350	503.95358	-325.73013	28.88038	571.23077	608.04553	180.08572	559.76410	615.16705	
3513	35.120	-52.55633	7.67172	-167.72510	327.82803	119.34589	-144.10143	-66.72356	138.74031	465.79306	291.24225	24.02152	472.10641	221.61839	1090.56836	-511.57150	65.63258	506.79654	-332.35324	223.05853	504.54419	-324.84787	30.23214	571.44739	609.36292	180.94205	559.81293	615.70270	
3514	35.130	-52.57068	7.74730	-167.59950	326.02951	112.24045	-143.05692	-66.66840	132.04938	467.69910	291.26456	23.57342	472.05740	220.97102	1090.67493	-510.83719	64.71463	506.99149	-331.65033	223.51105	504.32166	-324.50467	31.48938	571.44586	610.25311	182.27881	559.51453	616.65778	
3515	35.140	-52.57896	7.73204	-167.41170	324.15616	103.95074	-142.32710	-67.69572	124.98552	469.75696	291.26163	23.31098	472.05994	220.66096	1090.84790	-509.98541	64.19437	507.09653	-330.75815	221.82396	504.47565	-323.77243	32.43433	571.30548	611.05994	183.92169	559.53088	617.80017	
3516	35.150	-52.67044	7.62912	-167.15398	323.30627	95.47626	-141.06775	-68.67087	117.14849	471.57983	291.30634	22.79552	472.12442	220.39482	1090.74683	-509.06076	63.50455	507.07190	-329.75198	222.24260	503.98792	-323.38336	33.45116	571.03461	612.09247	184.54585	558.97662	617.77533	
3517	35.160	-52.80708	7.70748	-167.00299	321.56592	86.11279	-140.14284	-68.44618	107.85868	473.57889	291.38947	22.43786	472.35513	220.13290	1090.79541	-508.15280	63.25708	506.84317	-328.68738	221.10603	503.96893	-322.52704	34.66405	570.74835	613.00549	187.27954	559.03284	619.31177	
3518	35.170	-52.99314	7.84360	-166.87302	319.95352	76.46483	-139.30098	-68.30887	98.21220	475.79187	291.29996	22.14865	472.43759	219.82512	1090.68335	-507.29816	62.37992	507.17444	-328.14963	220.47752	503.81470	-321.67865	35.87236	570.25415	613.89429	186.64169	557.94244	619.16736	
3519	35.180	-53.10909	7.96076	-166.71675	318.12680	66.56742	-138.59518	-67.57320	88.07211	477.86777	291.28543	21.69258	472.29916	219.54646	1090.60107	-506.56573	61.92981	507.26611	-327.33765	220.13570	503.86823	-321.43771	36.90689	570.06567	614.86261	187.97073	557.42371	619.90533	
3520	35.190	-53.30503	8.16795	-166.56277	316.42206	56.44252	-138.16019	-66.67069	78.09508	479.13190	291.38318	21.39445	472.36667	219.52626	1090.60364	-505.80396	61.67587	507.42322	-326.56775	220.31808	503.84744	-321.09274	38.16970	569.79053	615.81885	189.63112	557.20636	620.97827	
3521	35.200	-53.43100	8.25023	-166.40453	315.91519	47.26214	-138.11465	-66.10968	69.09937	480.11285	291.46307	20.91403	472.50958	219.49274	1090.60559	-504.95422	61.07315	507.75107	-325.86774	218.99352	504.19635	-320.52103	39.09122	569.40454	616.56140	189.91154	556.48352	621.09357	
3522	35.210	-53.51431	8.24698	-166.10689	315.50488	38.37516	-138.18901	-65.71664	60.20137	480.45889	291.46191	20.61766	472.56192	219.39040	1090.71216	-504.28571	60.77008	507.63431	-325.04031	218.90125	503.73761	-320.01202	40.36732	568.97766	617.13055	191.12883	555.93921	621.47070	
3523	35.220	-53.64178	8.32304	-165.82538	315.61612	30.08803	-138.29991	-65.34775	51.81311	480.62094	291.49612	20.37499	472.60474	219.55238	1090.78320	-503.55994	60.53828	507.74921	-324.68701	218.46744	503.44095	-319.51279	41.39014	568.83167	618.08435	191.82816	555.46918	621.78156	
3524	35.230	-53.77868	8.45895	-165.63721	316.46240	22.72266	-138.34158	-64.95280	44.23501	480.67966	291.40311	19.79074	472.62726	219.95207	1090.93958	-502.58508	60.09480	507.86252	-323.76691	218.68716	503.47498	-319.47806	42.70344	568.42932	618.59064	192.87541	554.87531	622.02930	
